<?xml version="1.0" encoding="UTF-8"?>
<!-- Generator: Adobe Illustrator 25.2.3, SVG Export Plug-In . SVG Version: 6.00 Build 0)  -->
<svg xmlns="http://www.w3.org/2000/svg" xmlns:xlink="http://www.w3.org/1999/xlink" version="1.1" id="Capa_1" x="0px" y="0px" viewBox="0 0 512 512" style="enable-background:new 0 0 512 512;" xml:space="preserve" width="512" height="512">
<g>
	<g>
		<path style="fill:#FFFFFF;" d="M255.989,512c-10.79,0-21.6-0.673-32.132-2c-36.29-4.543-70.547-16.59-101.809-35.807    c-8.187-5.044-16.22-10.641-23.885-16.639c-11.164-8.766-21.683-18.525-31.288-29.019C23.745,381.28,0,320.013,0,256.011    C0,193.94,22.494,134.07,63.338,87.426c40.453-46.196,96.049-76.346,156.55-84.898C231.792,0.851,243.936,0,255.989,0    c10.109,0,20.269,0.601,30.197,1.784C414.908,16.879,512,126.175,512,256.011c0,66.67-25.482,129.769-71.754,177.674    c-1.615,1.706-3.296,3.414-5.047,5.116c-5.761,5.69-12.097,11.325-18.754,16.679c-35.567,28.663-78.177,47.276-123.209,53.824    C281.035,511.091,268.498,512,255.989,512z"/>
	</g>
	<g>
		<g>
			<path style="fill:#FFC17D;" d="M432.15,424.177c42.053-43.535,67.914-102.829,67.914-168.166     c0-124.174-93.387-226.525-213.754-240.641c-9.373-1.117-18.906-1.687-28.575-1.687c-11.608,0-23.033,0.821-34.185,2.395     C105.921,32.703,15.43,133.775,15.43,256.012c0,62.92,23.968,120.206,63.285,163.285c9.099,9.943,18.997,19.134,29.624,27.48     l140.713,8.275l15.596,16.489l80.747-43.037L432.15,424.177z"/>
		</g>
		<g>
			<g>
				<path style="fill:#FADED3;" d="M426.136,299.041c0,0,14.51,0.746,17.134-2.628c2.623-3.374,5.461-17.988,5.461-17.988      s1.325,13.649,3.486,17.51c2.527,4.515,15.9,7.259,15.9,7.259s-12.481-0.387-15.777,3.303      c-2.246,2.516-6.308,13.287-6.717,17.712c0,0-0.296-16.62-3.889-19.104C438.141,302.622,426.136,299.041,426.136,299.041z"/>
			</g>
			<g>
				<path style="fill:#FADED3;" d="M68.237,278.322c0,0,14.51,0.746,17.133-2.628c2.623-3.374,5.461-17.988,5.461-17.988      s1.325,13.649,3.486,17.51c2.526,4.516,15.9,7.26,15.9,7.26s-12.482-0.387-15.777,3.303c-2.246,2.516-6.308,13.287-6.717,17.712      c0,0-0.295-16.62-3.888-19.104C80.242,281.903,68.237,278.322,68.237,278.322z"/>
			</g>
			<g>
				<path style="fill:#FADED3;" d="M381.106,129.263c0,0,14.51,0.745,17.133-2.628c2.623-3.374,5.461-17.988,5.461-17.988      s1.325,13.649,3.486,17.51c2.526,4.516,15.9,7.26,15.9,7.26s-12.482-0.387-15.777,3.303c-2.246,2.516-6.308,13.287-6.717,17.712      c0,0-0.295-16.62-3.888-19.104C393.111,132.844,381.106,129.263,381.106,129.263z"/>
			</g>
			<g>
				<path style="fill:#FADED3;" d="M84.54,151.777c0,0,14.51,0.745,17.133-2.628c2.623-3.374,5.461-17.988,5.461-17.988      s1.325,13.649,3.486,17.51c2.526,4.516,15.9,7.26,15.9,7.26s-12.482-0.387-15.777,3.303c-2.246,2.516-6.308,13.287-6.717,17.712      c0,0-0.296-16.62-3.888-19.104C96.546,155.358,84.54,151.777,84.54,151.777z"/>
			</g>
			<g>
				<circle style="fill:#FADED3;" cx="436.297" cy="212.574" r="7.375"/>
			</g>
			<g>
				<path style="fill:#FADED3;" d="M360.992,49.929c0,4.073-3.302,7.375-7.376,7.375c-4.073,0-7.375-3.302-7.375-7.375      s3.302-7.375,7.375-7.375C357.689,42.554,360.992,45.856,360.992,49.929z"/>
			</g>
			<g>
				<circle style="fill:#FADED3;" cx="85.388" cy="385.7" r="7.375"/>
			</g>
			<g>
				<path style="fill:#FADED3;" d="M58.606,221.259c0,4.073-3.302,7.376-7.375,7.376c-4.073,0-7.375-3.302-7.375-7.376      c0-4.073,3.302-7.375,7.375-7.375C55.304,213.884,58.606,217.186,58.606,221.259z"/>
			</g>
			<g>
				<path style="fill:#FADED3;" d="M401.364,383.516c0,4.073-3.302,7.375-7.375,7.375c-4.073,0-7.375-3.302-7.375-7.375      c0-4.073,3.302-7.375,7.375-7.375C398.062,376.141,401.364,379.443,401.364,383.516z"/>
			</g>
		</g>
		<g>
			<g>
				<path style="fill:#7EA8C5;" d="M173.138,400.362c-13.411-0.766-27.362-0.385-39.591-5.943      c-17.35-7.886-27.923-27.04-28.803-46.078c-0.88-19.038,6.76-37.703,17.869-53.188c16.398-22.857,40.2-39.716,65.973-50.989      c25.773-11.273,53.559-17.249,81.399-21.276c14.952-2.163,30.09-3.785,45.151-2.607c44.613,3.488,86.117,33.578,103.305,74.894      c4.211,10.122,7.075,21.098,5.922,31.999c-2.218,20.965-19.192,38.048-38.561,46.373c-12.698,5.457-27.755,8.749-35.325,20.313      c-4.184,6.392-5.255,14.266-7.947,21.416c-9.103,24.181-36.106,37.492-61.869,39.472c-14.577,1.12-29.664-0.728-42.66-7.426      c-14.554-7.501-19.289-18.152-26.595-31.579C204.621,403.269,185.896,401.09,173.138,400.362z"/>
			</g>
			<g>
				<g>
					<path style="fill:#D3542B;" d="M316.843,402.414c0,0-13.409,43.258-46.908,43.854c-33.499,0.621-42.041-36.553-42.041-36.553       l1.551-44.093l0.883-24.743l82.245-4.868l1.766,27.582L316.843,402.414z"/>
				</g>
				<g style="opacity:0.44;">
					<path style="fill:#331510;" d="M314.338,363.594c-4.247,5.249-9.258,9.854-14.984,13.552       c-15.676,10.093-36.863,12.264-53.16,3.221c-6.585-3.651-12.049-8.828-16.749-14.745l0.883-24.743l82.245-4.868       L314.338,363.594z"/>
				</g>
			</g>
			<g>
				<g>
					<path style="fill:#D3542B;" d="M151.817,229.891c-7.484-2.957-16.495-2.695-23.095,1.91       c-5.507,3.843-8.839,10.334-9.698,16.995c-0.858,6.66,0.573,13.464,3.144,19.668c3.806,9.184,10.226,17.371,18.616,22.704       c8.389,5.333,18.768,7.675,28.534,5.817c3.838-0.731,7.752-2.225,10.182-5.284c2.201-2.771,2.89-6.443,3.106-9.975       c0.667-10.893-2.679-21.897-9.084-30.706C167.326,242.497,162.247,234.013,151.817,229.891z"/>
				</g>
				<g>
					<path style="fill:#331510;" d="M167.185,274.263c-0.33,0-0.648-0.183-0.804-0.498c-8.687-17.588-25.215-31.004-44.214-35.89       c-0.478-0.123-0.767-0.61-0.643-1.089c0.123-0.479,0.611-0.774,1.089-0.643c19.496,5.014,36.458,18.781,45.373,36.83       c0.218,0.444,0.037,0.979-0.406,1.199C167.453,274.233,167.317,274.263,167.185,274.263z"/>
				</g>
			</g>
			<g>
				<g>
					<path style="fill:#D3542B;" d="M373.017,225.83c7.484-2.957,16.495-2.695,23.095,1.91c5.507,3.843,8.839,10.334,9.698,16.994       c0.859,6.66-0.573,13.464-3.144,19.668c-3.807,9.184-10.227,17.371-18.616,22.704c-8.39,5.333-18.768,7.675-28.534,5.816       c-3.838-0.731-7.751-2.225-10.182-5.284c-2.201-2.771-2.89-6.443-3.106-9.975c-0.667-10.893,2.679-21.897,9.084-30.706       C357.508,238.435,362.587,229.951,373.017,225.83z"/>
				</g>
				<g>
					<path style="fill:#331510;" d="M358.347,274.263c-0.132,0-0.268-0.029-0.395-0.092c-0.443-0.219-0.624-0.755-0.406-1.199       c8.916-18.048,25.879-31.817,45.374-36.83c0.479-0.123,0.968,0.165,1.089,0.643c0.124,0.479-0.165,0.966-0.643,1.089       c-18.998,4.886-35.527,18.302-44.215,35.89C358.995,274.08,358.677,274.263,358.347,274.263z"/>
				</g>
			</g>
			<g>
				<path style="fill:#D3542B;" d="M377.829,201.706l-0.596,3.316l-3.388,18.515l-7.874,43.115l-0.143,0.788      c-0.191,1.336-0.405,2.768-0.644,4.199c-2.004,12.049-5.631,27.582-7.969,37.746c-0.024,0.048,0,0.095-0.024,0.143      c-4.557,19.446-23.096,32.02-46.479,39.178c-3.006,0.907-6.108,1.718-9.234,2.458c-4.748,2.624-9.091,6.681-13.815,9.496      c-7.826,4.605-17.561,5.822-26.27,3.293c-5.416-1.575-11.095-5.297-16.749-7.969c-0.024,0-0.048,0-0.048,0      c-26.771-1.289-48.097-7.787-56.901-16.926c-5.392-5.607-11.887-15.285-15.704-27.644c-2.147-6.943-4.08-14.626-5.798-22.571      v-0.024l-0.644-3.126c-0.167,0.024-0.31,0.072-0.477,0.119l-0.763-5.607l-6.418-46.574l-1.813-13.195      c-0.191-1.909-0.358-3.746-0.525-5.464c-0.978-10.379-1.384-16.964-1.384-16.964l0.358-0.048      c-0.572-3.722-0.954-7.492-1.169-11.333c-0.859-16.392,1.79-32.163,7.325-46.551c15.509-40.49,53.708-70.172,99.806-72.629      c15.055-0.788,29.586,1.384,43.019,6.036c0.572,0.215,1.145,0.405,1.718,0.644c25.554,9.306,46.956,27.558,60.175,51.18      c7.015,12.526,11.739,26.556,13.552,41.54l0.286-0.072c0,0,0,0.716-0.048,2.052c0.215,1.909,0.358,3.842,0.477,5.75      C380.144,183.882,379.476,192.949,377.829,201.706z"/>
			</g>
			<g>
				<g>
					<path style="fill:#331510;" d="M377.829,201.706l-0.596,3.316l-3.388,18.515l-0.388,2.124       c-3.126,2.816-7.629,5.44-10.755,8.279c-10.975-28.703-16.63-60.938-6.991-90.119c2.195-6.657,5.249-13.171,9.687-18.515       c7.015,12.526,11.971,25.606,13.784,40.59l0.054,0.879c0,0,0,0.716-0.048,2.052c0.215,1.909,0.358,3.842,0.477,5.75       C380.144,183.882,379.476,192.949,377.829,201.706z"/>
				</g>
				<g>
					<path style="fill:#331510;" d="M164.69,241.599c-2.147-2.744-4.39-5.416-6.8-7.969l-1.813-13.195       c-0.191-1.909-0.358-3.746-0.525-5.464c-0.978-10.379-1.384-16.964-1.384-16.964l0.358-0.048       c-0.572-3.722-0.954-7.492-1.169-11.333c-0.859-16.392,1.79-32.163,7.325-46.551c3.627,1.718,6.896,4.366,9.281,7.54       c5.559,7.444,7.23,17.06,7.85,26.317C179.411,197.22,174.043,220.221,164.69,241.599z"/>
				</g>
				<g>
					<path style="fill:#331510;" d="M183.144,51.798c-9.369-7.116-22.008-9.989-33.369-6.934       c-11.361,3.055-21.046,12.216-24.073,23.584c-3.027,11.368,1.078,24.484,10.46,31.583c-2.744,3.995-6.146,9.118-7.692,13.711       c-3.957,11.76,1.653,25.83,12.358,32.103c10.705,6.273,25.346,4.507,34.624-3.732c2.163,6.202,6.343,11.675,12.478,14.021       c6.135,2.346,13.093,2.19,19.312,0.079c9.064-3.076,16.607-10.348,20.013-19.293c6.857,7.787,18.121,10.063,28.095,7.207       c2.027-0.58,4.002-1.402,5.732-2.607c4.489-3.127,6.853-8.419,9.008-13.447c5.337,8.911,15.981,14.25,26.334,13.404       c10.352-0.846,19.94-8.956,21.635-19.204c3.38,4.56,6.574,8.502,11.589,11.161s11.671,2.986,16.039-0.64       c2.379-1.974,3.808-4.835,5.171-7.61c3.433,5.619,7.523,10.133,11.861,15.088c7.91-4.181,13.663-13.573,11.857-22.336       s-9.835-15.856-18.753-16.568c2.235-9.798,1.254-19.905-1.941-29.433c-1.406-4.191-3.364-8.28-6.384-11.508       c-3.469-3.706-8.136-6.069-12.886-7.859c-13.601-5.123-30.351-5.536-41.299,4.024c-1.021-14.626-14.51-26.144-28.93-28.8       c-3.689-0.679-7.537-0.769-11.157,0.211c-7.703,2.087-13.433,8.778-16.658,16.078c-5.584-9.492-16.893-15.831-27.84-14.635       C197.779,30.644,186.547,41.324,183.144,51.798z"/>
				</g>
			</g>
			<g>
				<g>
					<g>
						<g>
							<g>
								<circle style="fill:#331510;" cx="213.709" cy="228.975" r="10.582"/>
							</g>
							<g>
								<path style="fill:#331510;" d="M325.828,226.786c0,5.844-4.737,10.582-10.581,10.582c-5.844,0-10.581-4.737-10.581-10.582          c0-5.844,4.737-10.581,10.581-10.581C321.091,216.205,325.828,220.942,325.828,226.786z"/>
							</g>
						</g>
					</g>
					<g>
						<path style="fill:#331510;" d="M199.284,184.731c-3.699,1.222-7.352,3.093-9.673,6.223c-2.321,3.129-2.962,7.738-0.693,10.905        c2.379,3.32,6.922,4.079,10.985,4.489c9.306,0.939,19.189,1.376,27.501-2.915c9.527-4.918,9.056-17.074-1.281-20.944        C219.188,179.892,205.911,182.542,199.284,184.731z"/>
					</g>
					<g>
						<path style="fill:#331510;" d="M328.77,183.992c3.733,1.115,7.438,2.881,9.848,5.943c2.41,3.061,3.184,7.65,1.006,10.88        c-2.283,3.387-6.802,4.276-10.852,4.803c-9.276,1.206-19.142,1.927-27.573-2.123c-9.665-4.642-9.544-16.806,0.678-20.973        C308.736,179.727,322.083,181.994,328.77,183.992z"/>
					</g>
				</g>
				<g>
					<path style="fill:#331510;" d="M268.747,267.02c-2.716,0-5.348-0.883-7.909-1.743c-1.296-0.434-2.635-0.884-3.935-1.195       c-3.906-0.939-8.059-0.758-12.076-0.584l-0.931,0.04c-1.503,0.067-6.099,0.253-7.723-3.345       c-0.647-1.435-0.583-3.034-0.457-4.266c0.5-4.867,2.595-9.587,5.746-12.948c0.422-0.45,1.132-0.473,1.58-0.051       c0.451,0.422,0.473,1.129,0.051,1.58c-2.824,3.011-4.701,7.257-5.152,11.647c-0.099,0.953-0.157,2.17,0.27,3.117       c0.683,1.516,2.444,2.152,5.592,2.03l0.926-0.039c4.17-0.181,8.486-0.365,12.694,0.642c1.396,0.335,2.783,0.801,4.125,1.252       c3.082,1.034,5.985,2.011,8.891,1.475c1.694-0.313,3.298-1.135,4.996-2.005c1.565-0.802,3.182-1.632,4.94-2.072       c2.333-0.585,4.68-0.433,6.95-0.284c0.82,0.053,1.641,0.107,2.458,0.125c3.559,0.068,6.056-0.767,7.638-2.576       c3.147-3.595,1.651-10.385-1.736-13.827c-0.434-0.44-0.428-1.148,0.012-1.581c0.44-0.435,1.148-0.428,1.581,0.012       c4.145,4.212,5.807,12.321,1.825,16.869c-2.017,2.304-5.179,3.429-9.368,3.338c-0.85-0.018-1.703-0.073-2.556-0.129       c-2.195-0.142-4.269-0.277-6.262,0.222c-1.509,0.379-2.944,1.114-4.464,1.893c-1.766,0.906-3.592,1.842-5.609,2.215       C270.14,266.963,269.44,267.02,268.747,267.02z"/>
				</g>
				<g>
					<g style="opacity:0.31;">
						<path style="fill:#331510;" d="M307.54,293.462c-11.875-0.658-22.104-9.233-33.937-10.428        c-15.673-1.582-30.262,10.009-45.993,9.186c16.998,4.595,34.405,4.126,52.005,3.624        C288.805,295.583,298.474,294.981,307.54,293.462z"/>
					</g>
					<g>
						<path style="fill:#331510;" d="M269.65,308.177c-4.089,0-8.169-1.296-11.507-3.655c-0.269-0.19-0.333-0.563-0.143-0.832        c0.19-0.269,0.56-0.332,0.832-0.143c3.176,2.247,7.031,3.519,10.962,3.436c3.89-0.031,7.763-1.312,10.905-3.608        c0.266-0.195,0.638-0.138,0.833,0.13c0.195,0.266,0.137,0.638-0.13,0.833c-3.342,2.442-7.461,3.806-11.599,3.84        C269.753,308.177,269.701,308.177,269.65,308.177z"/>
					</g>
				</g>
			</g>
			<g>
				<path style="fill:#7EA8C5;" d="M293.016,495.763c43.763-6.363,83.718-24.447,116.603-50.947      c6.18-4.971,12.132-10.239,17.788-15.827c1.619-1.573,3.192-3.17,4.743-4.812c-20.297-18.518-40.411-26.477-59.864-30.901      c-6.522-1.483-13.204-2.167-19.544-2.349c-0.524-0.023-1.049-0.046-1.551-0.046h-0.023c-12.748-0.251-24.037,1.437-30.149,2.6      c-1.026,0.182-1.916,0.365-2.623,0.524c-1.14,0.228-1.847,0.411-2.075,0.456c-0.069,0.023-0.091,0.023-0.091,0.023l-6.272,6.545      l-11.334,11.836l-18.13,18.906l-0.547,0.57l-5.747,6.021l-0.114-0.091l-0.045-0.046l-0.89-0.73l-43.74-36.26      c-0.023-0.023-0.023-0.023-0.046-0.046l-1.14-0.958l-0.319-0.251c0,0-0.137-0.046-0.388-0.114c0,0,0,0-0.023,0      c-0.456-0.137-1.368-0.342-2.851-0.502c-4.698-0.57-15.143-0.912-35.394,2.166c-0.73,0.114-1.459,0.228-2.189,0.342h-0.023      c-4.903,0.775-10.353,1.756-16.397,2.965c-20.069,4.014-42.965,22.486-62.304,41.939c7.229,5.656,14.778,10.924,22.623,15.759      c28.712,17.651,61.369,29.51,96.352,33.888C227.314,496.424,260.917,501.273,293.016,495.763z"/>
			</g>
			<g>
				<g>
					<g>
						<path style="fill:#FADED3;" d="M274.015,438.347c-0.024,0.095-0.072,0.191-0.143,0.262c-0.072,0.072-0.191,0.143-0.286,0.167        c-0.048,0.024-0.095,0.024-0.143,0.024c-0.143,0-0.31-0.048-0.429-0.167c-0.167-0.167-0.334-0.31-0.501-0.477        c-9.449-9.067-19.303-16.869-29.682-25.124l-3.436-2.72c-10.451-8.303-21.951-16.749-35.122-22.285        c-6.394-2.672-13.194-4.629-19.756-6.538c-4.772-1.384-9.711-2.815-14.459-4.509c-13.982-4.987-23.645-11.596-29.562-20.161        c-6.967-10.141-9.091-24.17-5.822-38.51c2.028-8.876,5.822-17.155,10.093-24.647c0.334,0.191,0.668,0.382,1.026,0.573        c-4.199,7.42-7.945,15.58-9.95,24.337c-3.197,14.006-1.145,27.701,5.631,37.555c5.774,8.375,15.246,14.817,28.99,19.732        c4.724,1.67,9.639,3.102,14.388,4.486c6.609,1.909,13.409,3.889,19.875,6.586c13.314,5.583,24.886,14.101,35.408,22.452        l3.436,2.72c10.403,8.255,20.281,16.081,29.777,25.196c0.167,0.167,0.334,0.31,0.501,0.477        C274.015,437.942,274.063,438.156,274.015,438.347z"/>
					</g>
				</g>
				<g>
					<g>
						<path style="fill:#FADED3;" d="M386.92,351.641c-5.75,13.242-18.682,20.615-28.536,24.48        c-2.911,1.145-5.917,2.147-8.804,3.102c-3.507,1.145-7.11,2.338-10.522,3.794c-17.656,7.42-31.9,21.808-44.451,34.501        l-20.591,20.83l-0.931,0.931c-0.119,0.119-0.262,0.167-0.429,0.167c-0.143,0-0.286-0.048-0.406-0.167        c-0.239-0.239-0.239-0.62,0-0.859l0.263-0.262l0.835-0.859l20.4-20.615c12.646-12.765,26.985-27.248,44.833-34.764        c3.483-1.455,7.11-2.672,10.617-3.842c2.887-0.954,5.87-1.932,8.757-3.078c13.624-5.321,23.502-13.791,27.868-23.836        c4.08-9.401,3.77-21.426-0.859-32.998c-3.699-9.21-9.687-17.513-15.891-25.148c0.406-0.072,0.835-0.167,1.288-0.263        c6.156,7.564,12.025,15.795,15.7,24.981C390.809,329.57,391.119,341.953,386.92,351.641z"/>
					</g>
				</g>
			</g>
			<g>
				<path style="fill:#FADED3;" d="M241.769,412.286c-0.097,0-0.195-0.024-0.286-0.073c-17.433-9.508-38.399-9.857-56.897-10.165      c-0.33-0.005-0.592-0.276-0.586-0.605c0.005-0.327,0.271-0.588,0.596-0.588c0.004,0,0.007,0,0.009,0.001      c18.636,0.31,39.758,0.662,57.449,10.309c0.289,0.158,0.395,0.52,0.238,0.809C242.185,412.173,241.981,412.286,241.769,412.286z      "/>
			</g>
			<g>
				<path style="fill:#FADED3;" d="M298.296,413.711c-0.172,0-0.342-0.074-0.46-0.218c-0.21-0.254-0.173-0.63,0.081-0.839      c15.599-12.846,35.277-20.873,55.409-22.604c0.316-0.025,0.617,0.215,0.645,0.544c0.028,0.328-0.216,0.617-0.544,0.645      c-19.893,1.71-39.337,9.641-54.753,22.335C298.564,413.666,298.429,413.711,298.296,413.711z"/>
			</g>
			<g>
				<g>
					<path style="fill:#FADED3;" d="M238.664,436.922c-3.799,0-6.892-3.093-6.892-6.892c0-3.799,3.093-6.892,6.892-6.892       s6.892,3.093,6.892,6.892C245.556,433.829,242.463,436.922,238.664,436.922z M238.664,424.332       c-3.142,0-5.698,2.556-5.698,5.698c0,3.142,2.556,5.698,5.698,5.698s5.698-2.556,5.698-5.698       C244.362,426.888,241.806,424.332,238.664,424.332z"/>
				</g>
				<g>
					<path style="fill:#FADED3;" d="M308.111,436.922c-3.799,0-6.892-3.093-6.892-6.892c0-3.799,3.093-6.892,6.892-6.892       s6.892,3.093,6.892,6.892C315.003,433.829,311.91,436.922,308.111,436.922z M308.111,424.332c-3.142,0-5.698,2.556-5.698,5.698       c0,3.142,2.556,5.698,5.698,5.698s5.698-2.556,5.698-5.698C313.809,426.888,311.253,424.332,308.111,424.332z"/>
				</g>
				<g>
					<path style="fill:#FADED3;" d="M326.92,485.647c-5.578,0-10.08-5.483-10.907-10.995c-0.788-5.25,0.799-10.445,2.334-15.469       l0.407-1.337c1.638-5.423,2.896-11.14,1.028-16.203c-2.181-5.91-7.979-9.319-12.459-11.139       c-0.306-0.124-0.452-0.471-0.328-0.776c0.124-0.307,0.479-0.451,0.776-0.328c4.703,1.909,10.799,5.512,13.129,11.83       c1.991,5.394,0.694,11.339-1.004,16.961l-0.408,1.342c-1.496,4.897-3.044,9.96-2.295,14.943       c0.791,5.268,5.2,10.531,10.533,9.934c0.317-0.032,0.622,0.201,0.658,0.529c0.035,0.327-0.201,0.622-0.529,0.658       C327.541,485.63,327.229,485.647,326.92,485.647z"/>
				</g>
				<g>
					<path style="fill:#FADED3;" d="M230.385,483.786c-0.244,0-0.474-0.152-0.562-0.395c-0.111-0.31,0.05-0.653,0.36-0.763       c2.299-0.824,4.214-2.939,5.125-5.658c0.749-2.237,0.88-4.877,0.401-8.068c-0.531-3.536-1.665-7.025-2.762-10.4       c-0.388-1.191-0.775-2.381-1.139-3.578c-1.319-4.343-2.557-9.48-1.737-14.653c0.865-5.461,4.244-10.064,8.609-11.726       c0.31-0.118,0.655,0.037,0.769,0.345c0.118,0.308-0.037,0.653-0.345,0.769c-3.973,1.514-7.056,5.752-7.856,10.799       c-0.781,4.935,0.421,9.906,1.701,14.119c0.361,1.188,0.746,2.372,1.13,3.556c1.113,3.421,2.263,6.957,2.808,10.591       c0.507,3.383,0.361,6.204-0.451,8.625c-1.025,3.061-3.213,5.455-5.851,6.401C230.52,483.774,230.452,483.786,230.385,483.786z"/>
				</g>
			</g>
		</g>
	</g>
</g>















</svg>
